<?xml version="1.0" encoding="utf-8"?>
<!-- Generator: Adobe Illustrator 14.0.0, SVG Export Plug-In . SVG Version: 6.00 Build 43363)  -->
<!DOCTYPE svg PUBLIC "-//W3C//DTD SVG 1.1//EN" "http://www.w3.org/Graphics/SVG/1.1/DTD/svg11.dtd">
<svg version="1.1" id="Calque_1" xmlns="http://www.w3.org/2000/svg" xmlns:xlink="http://www.w3.org/1999/xlink" x="0px" y="0px"
	 width="353px" height="342px" viewBox="0 0 353 342" enable-background="new 0 0 353 342" xml:space="preserve">
<g>
	<circle fill="#262626" cx="176.5" cy="171" r="137.237"/>
	<g>
		<path fill="#FFFFFF" d="M118.929,180.032l-6.069,25.802l-73.114-23.276H86.55l6.072-28.328l46.622,0.032l13.599-73.386h52.629
			c36.144,0,49.152,13.65,43.998,41.458l-1.19,6.438c-3.44,18.539-12.562,30.122-29.188,36.043l-0.098,0.518
			c17.61,5.921,22.422,19.313,18.891,38.366l-2.719,14.675c-5.154,27.811-25.996,42.746-60.87,42.746h-54.851l15.026-81.088H118.929
			z M169.349,180.012l-10.256,55.357h19.975c11.731,0,18.881-4.378,21.36-17.767l2.912-15.709
			c3.099-16.732-2.604-21.883-18.457-21.883L169.349,180.012L169.349,180.012z M182.947,106.627l-8.826,47.636h13.632
			c12.996,0,21.778-4.636,24.451-19.055l1.862-10.042c2.386-12.872-1.953-18.538-14.317-18.538L182.947,106.627L182.947,106.627z"/>
	</g>
</g>
</svg>
