<?xml version="1.0" encoding="utf-8"?>
<!-- Generator: Adobe Illustrator 14.0.0, SVG Export Plug-In . SVG Version: 6.00 Build 43363)  -->
<!DOCTYPE svg PUBLIC "-//W3C//DTD SVG 1.1//EN" "http://www.w3.org/Graphics/SVG/1.1/DTD/svg11.dtd">
<svg version="1.1" id="Calque_1" xmlns="http://www.w3.org/2000/svg" xmlns:xlink="http://www.w3.org/1999/xlink" x="0px" y="0px"
	 width="700.465px" height="218.988px" viewBox="0 0 700.465 218.988" enable-background="new 0 0 700.465 218.988"
	 xml:space="preserve">
<g>
	<path fill="#262626" d="M230.555,35.538c-6.819-8.197-19.341-12.183-38.281-12.183h-50.865L128.791,91.44l-50.557-0.024
		L72.596,117.7H15.662l85.117,27.188l5.786-24.639h16.886l-13.938,75.239h53.844c33.472,0,53.832-14.405,58.877-41.662l2.517-13.625
		c3.34-18.004-1.253-29.919-14.032-36.256c13.067-6.203,20.647-16.896,23.688-33.253l1.107-5.972
		C237.88,51.939,236.258,42.393,230.555,35.538z M187.888,137.634l-2.7,14.568c-1.923,10.418-6.802,14.479-17.403,14.479h-15.583
		l8.603-46.449h12.371c7.107,0,11.392,1.172,13.484,3.689C188.734,126.417,189.136,130.901,187.888,137.634z M197.843,66.45
		l-1.725,9.312c-2.036,10.986-8.102,15.674-20.282,15.674h-9.697l7.277-39.296h13.554c4.844,0,8.015,0.98,9.693,2.999
		C198.465,57.306,198.852,61.007,197.843,66.45z"/>
	<path fill="#262626" d="M271.524,197.642c-17.253,0-29.665-4.39-36.89-13.049c-6.434-7.711-8.456-18.438-6.009-31.878L252.194,23.4
		h37.28l-24.03,131.862c-0.853,4.679-0.407,8.104,1.325,10.18c1.752,2.101,5.128,3.165,10.035,3.165
		c10.161,0,15.49-4.387,17.28-14.224L317.957,23.4h35.518l-23.722,130.194C324.573,181.999,303.894,197.642,271.524,197.642
		L271.524,197.642z"/>
	<path fill="#262626" d="M452.206,35.562c-6.828-8.187-19.334-12.167-38.231-12.167H363.2l-31.354,172.087h37.27l12.411-68.059
		h9.106c6.761,0,11.125,1.293,13.343,3.951c2.284,2.738,2.778,7.452,1.51,14.407l-4.795,26.266
		c-2.524,13.869-1.85,16.823-0.826,21.295l0.488,2.14h38.252l-1.098-3.238c-1.94-5.727-1.159-11.271,0.256-19.075l4.706-25.795
		c2.146-11.759,3.04-27.73-11.729-35.911c13.231-6.252,21.136-17.29,24.1-33.592l2.395-13.124
		C459.565,51.959,457.921,42.414,452.206,35.562z M419.65,66.49l-3.01,16.486c-1.998,10.976-8.035,15.656-20.184,15.656h-9.688
		l8.472-46.444h13.514c4.83,0,7.996,0.979,9.679,2.996C420.243,57.351,420.641,61.05,419.65,66.49z"/>
	<path fill="#262626" d="M490.253,197.396c-17.255,0-29.666-4.39-36.889-13.047c-6.434-7.709-8.452-18.433-6.005-31.874
		l2.243-12.276h35.512l-2.704,14.824c-0.853,4.683-0.404,8.109,1.329,10.188c1.753,2.102,5.129,3.167,10.032,3.167
		c10.162,0,15.491-4.391,17.277-14.232c1.847-10.104-0.758-18.132-20.116-33.966c-23.341-19.223-30.616-34.031-26.855-54.643
		c5.178-28.404,25.646-44.048,57.634-44.048c16.979,0,29.205,4.336,36.339,12.885c6.433,7.708,8.442,18.488,5.977,32.042
		l-1.328,7.268h-35.509l1.78-9.815c0.9-4.938,0.474-8.5-1.271-10.593c-1.682-2.016-4.771-2.995-9.447-2.995
		c-9.756,0-14.921,4.462-16.746,14.466c-1.839,10.104,0.77,18.132,20.126,33.967c23.338,19.217,30.614,34.024,26.854,54.643
		C543.297,181.755,522.616,197.396,490.253,197.396L490.253,197.396z"/>
	<path fill="#262626" d="M613.053,195.481h-37.276l26.11-143.293h-33.769l5.26-28.789h104.796l-5.248,28.789h-33.757
		L613.053,195.481L613.053,195.481z"/>
</g>
</svg>
